<svg width="24" height="24" viewBox="0 0 24 24" fill="none" xmlns="http://www.w3.org/2000/svg">
<path d="M3.00256 2.58031C3.88814 2.06907 4.76089 1.56353 5.64219 1.05371C5.75057 1.20273 5.70565 1.33964 5.70565 1.46513C5.7085 4.51405 5.70779 7.56439 5.7085 10.6147C5.7085 10.7124 5.70351 10.8094 5.71064 10.9056C5.73988 11.2764 6.04006 11.4647 6.38018 11.3042C6.69605 11.1559 6.99908 10.9798 7.30283 10.8058C7.83618 10.4999 8.36311 10.1826 8.89645 9.87532C9.7421 9.38618 10.5906 8.90275 11.4363 8.41575C12.0309 8.07278 12.6227 7.72553 13.2174 7.38043C13.4363 7.25279 13.6573 7.12873 13.8841 6.99824L16.667 8.60613C16.5786 8.6867 16.5216 8.76085 16.4467 8.80435C15.7273 9.21933 15.0014 9.62505 14.2812 10.0415C13.4484 10.5235 12.6213 11.0183 11.7871 11.4996C11.0676 11.916 10.3418 12.3203 9.6216 12.7339C8.91214 13.1431 8.20909 13.5595 7.4982 13.9703C7.00907 14.254 6.52207 14.5442 6.02366 14.8095C5.78337 14.9364 5.70565 15.1104 5.70779 15.3649C5.71278 16.5564 5.7085 17.7472 5.70779 18.9386V19.3543C4.83148 19.8599 3.95873 20.364 3.05034 20.8881C3.02894 20.7882 3.00969 20.7262 3.00328 20.6628C2.99686 20.59 3.00185 20.5173 3.00185 20.4439L3.00256 2.58031Z" fill="url(#paint0_linear_26217_127440)"/>
<path d="M9.90993 16.9376L7.16406 15.2542C7.33733 15.1458 7.49633 15.0395 7.66176 14.9447C8.5509 14.4342 9.44219 13.9286 10.3299 13.416C11.1549 12.9397 11.9734 12.4541 12.7991 11.9771C13.5193 11.5607 14.2459 11.1542 14.9667 10.7378C15.6669 10.3342 16.365 9.92639 17.0623 9.51996C17.2506 9.41087 17.4338 9.29393 17.6256 9.19268C17.8702 9.06434 17.9515 8.86398 17.9515 8.59659C17.9458 7.36947 17.9486 6.14163 17.9486 4.9145V4.67065C18.8142 4.13374 19.7062 3.63461 20.6353 3.1084C20.6431 3.24815 20.6538 3.34869 20.6538 3.45065C20.6546 9.40445 20.6538 15.359 20.6595 21.3135C20.6595 21.5466 20.6018 21.6793 20.3865 21.7976C19.6691 22.1919 18.9682 22.6169 18.2595 23.0283C18.1761 23.0768 18.0855 23.1117 17.9828 23.1602C17.9215 23.0326 17.9507 22.9 17.9507 22.7745C17.9486 19.6414 17.9493 16.5077 17.9493 13.3746C17.9493 13.2648 17.9379 13.1543 17.9507 13.0466C17.9736 12.8584 17.8616 12.7464 17.7347 12.653C17.6306 12.5774 17.5122 12.5247 17.3689 12.6038C17.0545 12.7785 16.7279 12.9325 16.4156 13.1094C15.8487 13.4281 15.2869 13.7554 14.7229 14.0819C14.0034 14.4991 13.2868 14.919 12.5688 15.3354C12.0588 15.6322 11.5473 15.9265 11.0344 16.2182C10.7456 16.3822 10.5189 16.6381 10.2066 16.7679C10.1074 16.8086 10.019 16.8749 9.91278 16.9369L9.90993 16.9376Z" fill="url(#paint1_linear_26217_127440)"/>
<path d="M6.67965 10.0759C6.66326 10.0096 6.644 9.96471 6.644 9.92122C6.64258 6.98425 6.64258 4.04728 6.64258 1.09961C6.93706 1.16236 8.92926 2.27967 9.78133 2.8501V8.27982C8.75671 8.87164 7.72781 9.46702 6.67965 10.0759Z" fill="url(#paint2_linear_26217_127440)"/>
<path d="M17.0091 13.8506V23.1813L16.6291 22.9645C15.9496 22.5752 15.2715 22.1852 14.5906 21.798C14.4415 21.7132 14.3645 21.6105 14.3652 21.4244C14.3719 19.483 14.3719 17.5405 14.3652 15.5968C14.3652 15.425 14.4287 15.3209 14.5642 15.2438C15.0861 14.9439 15.6083 14.6447 16.1307 14.3461C16.4131 14.1843 16.6968 14.026 17.0091 13.8506Z" fill="url(#paint3_linear_26217_127440)"/>
<path d="M6.6582 19.3758V16.0645C7.02113 16.299 7.34128 16.5151 7.66999 16.7162C8.01866 16.9308 8.37517 17.1333 8.72884 17.3379C9.07252 17.5369 9.41833 17.7322 9.75417 17.9247C9.81121 18.2613 9.80693 20.8432 9.74561 21.1569L6.6582 19.3758Z" fill="url(#paint4_linear_26217_127440)"/>
<path d="M6.1697 23.257L3.55859 21.7454C3.60637 21.6826 3.63061 21.6227 3.6741 21.5971C4.19461 21.2926 4.71869 20.9938 5.24134 20.6929C5.54366 20.5197 5.84527 20.3457 6.15972 20.166C7.03389 20.6716 7.90379 21.175 8.8293 21.7112C7.91377 22.2409 7.05457 22.7401 6.1697 23.257Z" fill="url(#paint5_linear_26217_127440)"/>
<path d="M14.8639 2.27089L17.47 0.75C17.9106 1.00241 18.3513 1.2477 18.7841 1.50652C19.2141 1.76322 19.6697 1.97712 20.1167 2.30369C19.8993 2.43489 19.7296 2.54042 19.5563 2.64096C18.921 3.00959 18.2843 3.37609 17.649 3.74615C17.5427 3.80819 17.4479 3.80747 17.3424 3.74687C17.1327 3.62636 16.9195 3.51513 16.7106 3.3932C16.1265 3.05403 15.5433 2.71344 14.9608 2.37143C14.9309 2.35432 14.9074 2.32437 14.8496 2.27161L14.8639 2.27089Z" fill="url(#paint6_linear_26217_127440)"/>
<path d="M17.008 4.63557V7.71871C16.1139 7.20319 15.2468 6.70193 14.3848 6.20424V3.12109C15.2725 3.63305 16.1324 4.12789 17.008 4.63557Z" fill="url(#paint7_linear_26217_127440)"/>
<defs>
<linearGradient id="paint0_linear_26217_127440" x1="16.4845" y1="7.46243" x2="2.70594" y2="9.15871" gradientUnits="userSpaceOnUse">
<stop stop-color="#E53E7D"/>
<stop offset="1" stop-color="#FCB038"/>
</linearGradient>
<linearGradient id="paint1_linear_26217_127440" x1="20.4699" y1="9.59127" x2="6.86102" y2="11.2262" gradientUnits="userSpaceOnUse">
<stop stop-color="#E53E7D"/>
<stop offset="1" stop-color="#FCB038"/>
</linearGradient>
<linearGradient id="paint2_linear_26217_127440" x1="9.74068" y1="4.00164" x2="6.54204" y2="4.19772" gradientUnits="userSpaceOnUse">
<stop stop-color="#E53E7D"/>
<stop offset="1" stop-color="#FCB038"/>
</linearGradient>
<linearGradient id="paint3_linear_26217_127440" x1="16.9685" y1="16.876" x2="14.2704" y2="17.0093" gradientUnits="userSpaceOnUse">
<stop stop-color="#E53E7D"/>
<stop offset="1" stop-color="#FCB038"/>
</linearGradient>
<linearGradient id="paint4_linear_26217_127440" x1="9.75631" y1="17.7151" x2="6.58333" y2="18.0759" gradientUnits="userSpaceOnUse">
<stop stop-color="#E53E7D"/>
<stop offset="1" stop-color="#FCB038"/>
</linearGradient>
<linearGradient id="paint5_linear_26217_127440" x1="8.76013" y1="21.1814" x2="3.82241" y2="22.6951" gradientUnits="userSpaceOnUse">
<stop stop-color="#E53E7D"/>
<stop offset="1" stop-color="#FCB038"/>
</linearGradient>
<linearGradient id="paint6_linear_26217_127440" x1="20.0633" y1="1.73327" x2="15.1398" y2="3.25344" gradientUnits="userSpaceOnUse">
<stop stop-color="#E53E7D"/>
<stop offset="1" stop-color="#FCB038"/>
</linearGradient>
<linearGradient id="paint7_linear_26217_127440" x1="16.9702" y1="4.60705" x2="14.3113" y2="4.87515" gradientUnits="userSpaceOnUse">
<stop stop-color="#E53E7D"/>
<stop offset="1" stop-color="#FCB038"/>
</linearGradient>
</defs>
</svg>
